<svg width="156" height="32" viewBox="0 0 156 32" fill="none" xmlns="http://www.w3.org/2000/svg">
<path d="M6.66666 28V5.33331H18.6667L19.2 7.99998H26.6667V21.3333H17.3333L16.8 18.6666H9.33332V28H6.66666Z" fill="#003366"/>
<path d="M53.0004 9.04V23H50.2004V13.92L46.4604 23H44.3404L40.5804 13.92V23H37.7804V9.04H40.9604L45.4004 19.42L49.8404 9.04H53.0004ZM60.6887 23.18C59.622 23.18 58.662 22.9467 57.8087 22.48C56.9553 22 56.282 21.3267 55.7887 20.46C55.3087 19.5933 55.0687 18.5933 55.0687 17.46C55.0687 16.3267 55.3153 15.3267 55.8087 14.46C56.3153 13.5933 57.002 12.9267 57.8687 12.46C58.7353 11.98 59.702 11.74 60.7687 11.74C61.8353 11.74 62.802 11.98 63.6687 12.46C64.5353 12.9267 65.2153 13.5933 65.7087 14.46C66.2153 15.3267 66.4687 16.3267 66.4687 17.46C66.4687 18.5933 66.2087 19.5933 65.6887 20.46C65.182 21.3267 64.4887 22 63.6087 22.48C62.742 22.9467 61.7687 23.18 60.6887 23.18ZM60.6887 20.74C61.1953 20.74 61.6687 20.62 62.1087 20.38C62.562 20.1267 62.922 19.7533 63.1887 19.26C63.4553 18.7667 63.5887 18.1667 63.5887 17.46C63.5887 16.4067 63.3087 15.6 62.7487 15.04C62.202 14.4667 61.5287 14.18 60.7287 14.18C59.9287 14.18 59.2553 14.4667 58.7087 15.04C58.1753 15.6 57.9087 16.4067 57.9087 17.46C57.9087 18.5133 58.1687 19.3267 58.6887 19.9C59.222 20.46 59.8887 20.74 60.6887 20.74ZM82.2826 11.76C83.6426 11.76 84.7359 12.18 85.5626 13.02C86.4026 13.8467 86.8226 15.0067 86.8226 16.5V23H84.0226V16.88C84.0226 16.0133 83.8026 15.3533 83.3626 14.9C82.9226 14.4333 82.3226 14.2 81.5626 14.2C80.8026 14.2 80.1959 14.4333 79.7426 14.9C79.3026 15.3533 79.0826 16.0133 79.0826 16.88V23H76.2826V16.88C76.2826 16.0133 76.0626 15.3533 75.6226 14.9C75.1826 14.4333 74.5826 14.2 73.8226 14.2C73.0492 14.2 72.4359 14.4333 71.9826 14.9C71.5426 15.3533 71.3226 16.0133 71.3226 16.88V23H68.5226V11.92H71.3226V13.26C71.6826 12.7933 72.1426 12.4267 72.7026 12.16C73.2759 11.8933 73.9026 11.76 74.5826 11.76C75.4492 11.76 76.2226 11.9467 76.9026 12.32C77.5826 12.68 78.1092 13.2 78.4826 13.88C78.8426 13.24 79.3626 12.7267 80.0426 12.34C80.7359 11.9533 81.4826 11.76 82.2826 11.76ZM99.7796 17.22C99.7796 17.62 99.7529 17.98 99.6996 18.3H91.5996C91.6663 19.1 91.9463 19.7267 92.4396 20.18C92.9329 20.6333 93.5396 20.86 94.2596 20.86C95.2996 20.86 96.0396 20.4133 96.4796 19.52H99.4996C99.1796 20.5867 98.5663 21.4667 97.6596 22.16C96.7529 22.84 95.6396 23.18 94.3196 23.18C93.2529 23.18 92.2929 22.9467 91.4396 22.48C90.5996 22 89.9396 21.3267 89.4596 20.46C88.9929 19.5933 88.7596 18.5933 88.7596 17.46C88.7596 16.3133 88.9929 15.3067 89.4596 14.44C89.9263 13.5733 90.5796 12.9067 91.4196 12.44C92.2596 11.9733 93.2263 11.74 94.3196 11.74C95.3729 11.74 96.3129 11.9667 97.1396 12.42C97.9796 12.8733 98.6263 13.52 99.0796 14.36C99.5463 15.1867 99.7796 16.14 99.7796 17.22ZM96.8796 16.42C96.8663 15.7 96.6063 15.1267 96.0996 14.7C95.5929 14.26 94.9729 14.04 94.2396 14.04C93.5463 14.04 92.9596 14.2533 92.4796 14.68C92.0129 15.0933 91.7263 15.6733 91.6196 16.42H96.8796ZM107.963 11.76C109.283 11.76 110.35 12.18 111.163 13.02C111.977 13.8467 112.383 15.0067 112.383 16.5V23H109.583V16.88C109.583 16 109.363 15.3267 108.923 14.86C108.483 14.38 107.883 14.14 107.123 14.14C106.35 14.14 105.737 14.38 105.283 14.86C104.843 15.3267 104.623 16 104.623 16.88V23H101.823V11.92H104.623V13.3C104.997 12.82 105.47 12.4467 106.043 12.18C106.63 11.9 107.27 11.76 107.963 11.76ZM118.306 14.22V19.58C118.306 19.9533 118.393 20.2267 118.566 20.4C118.753 20.56 119.059 20.64 119.486 20.64H120.786V23H119.026C116.666 23 115.486 21.8533 115.486 19.56V14.22H114.166V11.92H115.486V9.18H118.306V11.92H120.786V14.22H118.306ZM133.26 11.92V23H130.44V21.6C130.08 22.08 129.607 22.46 129.02 22.74C128.447 23.0067 127.82 23.14 127.14 23.14C126.273 23.14 125.507 22.96 124.84 22.6C124.173 22.2267 123.647 21.6867 123.26 20.98C122.887 20.26 122.7 19.4067 122.7 18.42V11.92H125.5V18.02C125.5 18.9 125.72 19.58 126.16 20.06C126.6 20.5267 127.2 20.76 127.96 20.76C128.733 20.76 129.34 20.5267 129.78 20.06C130.22 19.58 130.44 18.9 130.44 18.02V11.92H133.26ZM149.783 11.76C151.143 11.76 152.236 12.18 153.063 13.02C153.903 13.8467 154.323 15.0067 154.323 16.5V23H151.523V16.88C151.523 16.0133 151.303 15.3533 150.863 14.9C150.423 14.4333 149.823 14.2 149.063 14.2C148.303 14.2 147.696 14.4333 147.243 14.9C146.803 15.3533 146.583 16.0133 146.583 16.88V23H143.783V16.88C143.783 16.0133 143.563 15.3533 143.123 14.9C142.683 14.4333 142.083 14.2 141.323 14.2C140.549 14.2 139.936 14.4333 139.483 14.9C139.043 15.3533 138.823 16.0133 138.823 16.88V23H136.023V11.92H138.823V13.26C139.183 12.7933 139.643 12.4267 140.203 12.16C140.776 11.8933 141.403 11.76 142.083 11.76C142.949 11.76 143.723 11.9467 144.403 12.32C145.083 12.68 145.609 13.2 145.983 13.88C146.343 13.24 146.863 12.7267 147.543 12.34C148.236 11.9533 148.983 11.76 149.783 11.76Z" fill="#003366"/>
</svg>
