<svg width="204" height="56" viewBox="0 0 204 56" fill="none" xmlns="http://www.w3.org/2000/svg">
<rect width="204" height="56" rx="12" fill="#F7F7F7" fill-opacity="0.2"/>
<path d="M26 46V12H44L44.8 16H56V36H42L41.2 32H30V46H26Z" fill="#2C3E50"/>
<path d="M85.0004 21.04V35H82.2004V25.92L78.4604 35H76.3404L72.5804 25.92V35H69.7804V21.04H72.9604L77.4004 31.42L81.8404 21.04H85.0004ZM92.6887 35.18C91.622 35.18 90.662 34.9467 89.8087 34.48C88.9553 34 88.282 33.3267 87.7887 32.46C87.3087 31.5933 87.0687 30.5933 87.0687 29.46C87.0687 28.3267 87.3153 27.3267 87.8087 26.46C88.3153 25.5933 89.002 24.9267 89.8687 24.46C90.7353 23.98 91.702 23.74 92.7687 23.74C93.8353 23.74 94.802 23.98 95.6687 24.46C96.5353 24.9267 97.2153 25.5933 97.7087 26.46C98.2153 27.3267 98.4687 28.3267 98.4687 29.46C98.4687 30.5933 98.2087 31.5933 97.6887 32.46C97.182 33.3267 96.4887 34 95.6087 34.48C94.742 34.9467 93.7687 35.18 92.6887 35.18ZM92.6887 32.74C93.1953 32.74 93.6687 32.62 94.1087 32.38C94.562 32.1267 94.922 31.7533 95.1887 31.26C95.4553 30.7667 95.5887 30.1667 95.5887 29.46C95.5887 28.4067 95.3087 27.6 94.7487 27.04C94.202 26.4667 93.5287 26.18 92.7287 26.18C91.9287 26.18 91.2553 26.4667 90.7087 27.04C90.1753 27.6 89.9087 28.4067 89.9087 29.46C89.9087 30.5133 90.1687 31.3267 90.6887 31.9C91.222 32.46 91.8887 32.74 92.6887 32.74ZM114.283 23.76C115.643 23.76 116.736 24.18 117.563 25.02C118.403 25.8467 118.823 27.0067 118.823 28.5V35H116.023V28.88C116.023 28.0133 115.803 27.3533 115.363 26.9C114.923 26.4333 114.323 26.2 113.563 26.2C112.803 26.2 112.196 26.4333 111.743 26.9C111.303 27.3533 111.083 28.0133 111.083 28.88V35H108.283V28.88C108.283 28.0133 108.063 27.3533 107.623 26.9C107.183 26.4333 106.583 26.2 105.823 26.2C105.049 26.2 104.436 26.4333 103.983 26.9C103.543 27.3533 103.323 28.0133 103.323 28.88V35H100.523V23.92H103.323V25.26C103.683 24.7933 104.143 24.4267 104.703 24.16C105.276 23.8933 105.903 23.76 106.583 23.76C107.449 23.76 108.223 23.9467 108.903 24.32C109.583 24.68 110.109 25.2 110.483 25.88C110.843 25.24 111.363 24.7267 112.043 24.34C112.736 23.9533 113.483 23.76 114.283 23.76ZM131.78 29.22C131.78 29.62 131.753 29.98 131.7 30.3H123.6C123.666 31.1 123.946 31.7267 124.44 32.18C124.933 32.6333 125.54 32.86 126.26 32.86C127.3 32.86 128.04 32.4133 128.48 31.52H131.5C131.18 32.5867 130.566 33.4667 129.66 34.16C128.753 34.84 127.64 35.18 126.32 35.18C125.253 35.18 124.293 34.9467 123.44 34.48C122.6 34 121.94 33.3267 121.46 32.46C120.993 31.5933 120.76 30.5933 120.76 29.46C120.76 28.3133 120.993 27.3067 121.46 26.44C121.926 25.5733 122.58 24.9067 123.42 24.44C124.26 23.9733 125.226 23.74 126.32 23.74C127.373 23.74 128.313 23.9667 129.14 24.42C129.98 24.8733 130.626 25.52 131.08 26.36C131.546 27.1867 131.78 28.14 131.78 29.22ZM128.88 28.42C128.866 27.7 128.606 27.1267 128.1 26.7C127.593 26.26 126.973 26.04 126.24 26.04C125.546 26.04 124.96 26.2533 124.48 26.68C124.013 27.0933 123.726 27.6733 123.62 28.42H128.88ZM139.963 23.76C141.283 23.76 142.35 24.18 143.163 25.02C143.977 25.8467 144.383 27.0067 144.383 28.5V35H141.583V28.88C141.583 28 141.363 27.3267 140.923 26.86C140.483 26.38 139.883 26.14 139.123 26.14C138.35 26.14 137.737 26.38 137.283 26.86C136.843 27.3267 136.623 28 136.623 28.88V35H133.823V23.92H136.623V25.3C136.997 24.82 137.47 24.4467 138.043 24.18C138.63 23.9 139.27 23.76 139.963 23.76ZM150.306 26.22V31.58C150.306 31.9533 150.393 32.2267 150.566 32.4C150.753 32.56 151.059 32.64 151.486 32.64H152.786V35H151.026C148.666 35 147.486 33.8533 147.486 31.56V26.22H146.166V23.92H147.486V21.18H150.306V23.92H152.786V26.22H150.306ZM165.26 23.92V35H162.44V33.6C162.08 34.08 161.607 34.46 161.02 34.74C160.447 35.0067 159.82 35.14 159.14 35.14C158.273 35.14 157.507 34.96 156.84 34.6C156.173 34.2267 155.647 33.6867 155.26 32.98C154.887 32.26 154.7 31.4067 154.7 30.42V23.92H157.5V30.02C157.5 30.9 157.72 31.58 158.16 32.06C158.6 32.5267 159.2 32.76 159.96 32.76C160.733 32.76 161.34 32.5267 161.78 32.06C162.22 31.58 162.44 30.9 162.44 30.02V23.92H165.26ZM181.783 23.76C183.143 23.76 184.236 24.18 185.063 25.02C185.903 25.8467 186.323 27.0067 186.323 28.5V35H183.523V28.88C183.523 28.0133 183.303 27.3533 182.863 26.9C182.423 26.4333 181.823 26.2 181.063 26.2C180.303 26.2 179.696 26.4333 179.243 26.9C178.803 27.3533 178.583 28.0133 178.583 28.88V35H175.783V28.88C175.783 28.0133 175.563 27.3533 175.123 26.9C174.683 26.4333 174.083 26.2 173.323 26.2C172.549 26.2 171.936 26.4333 171.483 26.9C171.043 27.3533 170.823 28.0133 170.823 28.88V35H168.023V23.92H170.823V25.26C171.183 24.7933 171.643 24.4267 172.203 24.16C172.776 23.8933 173.403 23.76 174.083 23.76C174.949 23.76 175.723 23.9467 176.403 24.32C177.083 24.68 177.609 25.2 177.983 25.88C178.343 25.24 178.863 24.7267 179.543 24.34C180.236 23.9533 180.983 23.76 181.783 23.76Z" fill="#2C3E50"/>
<defs>
<linearGradient id="paint0_linear_11_8" x1="41" y1="12" x2="41" y2="46" gradientUnits="userSpaceOnUse">
<stop offset="0.25" stop-color="#1ABC9C"/>
<stop offset="0.75" stop-color="#3498DB"/>
</linearGradient>
</defs>
</svg>
