<svg width="495" height="394" viewBox="0 0 495 394" fill="none" xmlns="http://www.w3.org/2000/svg">
<g clip-path="url(#clip0_1_100)">
<path d="M369.252 389.267C362.4 383.468 358.238 374.306 359.33 365.388C360.421 356.469 367.181 348.27 375.95 346.376C384.718 344.482 394.714 349.725 397.377 358.305C398.843 341.763 400.532 324.527 409.312 310.439C417.262 297.684 431.032 288.556 445.955 286.923C460.878 285.291 476.59 291.458 485.897 303.257C495.205 315.055 497.483 332.209 490.965 345.755C486.163 355.734 477.316 363.16 468.047 369.202C438.095 388.561 402.171 396.433 366.885 391.371" fill="#F2F2F2"/>
<path d="M471.14 291.8C458.827 301.846 447.53 313.083 437.414 325.346C421.583 344.473 408.772 365.918 399.428 388.934C398.744 390.613 401.466 391.343 402.143 389.683C417.431 352.278 441.838 319.31 473.13 293.793C474.536 292.647 472.534 290.663 471.14 291.8Z" fill="white"/>
<path d="M121.021 393.237H82.1636C80.8506 393.235 79.5918 392.712 78.6633 391.782C77.7349 390.852 77.2126 389.591 77.2111 388.276V307.374C77.2126 306.059 77.7349 304.798 78.6633 303.868C79.5918 302.938 80.8506 302.415 82.1636 302.413H121.021C122.334 302.415 123.593 302.938 124.522 303.868C125.45 304.798 125.972 306.059 125.974 307.374V388.276C125.972 389.591 125.45 390.852 124.522 391.782C123.593 392.712 122.334 393.235 121.021 393.237Z" fill="#F1C40F"/>
<path d="M213.214 394H174.356C172.841 393.998 171.388 393.395 170.317 392.322C169.246 391.248 168.643 389.793 168.641 388.276V231.052C168.643 229.534 169.246 228.079 170.317 227.006C171.388 225.933 172.841 225.329 174.356 225.328H213.214C214.729 225.329 216.181 225.933 217.253 227.006C218.324 228.079 218.926 229.534 218.928 231.052V388.276C218.926 389.793 218.324 391.248 217.253 392.322C216.181 393.395 214.729 393.998 213.214 394ZM174.356 226.854C173.245 226.855 172.18 227.298 171.394 228.085C170.608 228.872 170.167 229.939 170.165 231.052V388.276C170.167 389.389 170.608 390.456 171.394 391.243C172.18 392.03 173.245 392.472 174.356 392.474H213.214C214.325 392.472 215.39 392.03 216.176 391.243C216.961 390.456 217.403 389.389 217.404 388.276V231.052C217.403 229.939 216.961 228.872 216.176 228.085C215.39 227.298 214.325 226.855 213.214 226.854H174.356Z" fill="#3F3D56"/>
<path d="M305.406 394H266.548C265.033 393.998 263.58 393.395 262.509 392.322C261.438 391.248 260.835 389.793 260.834 388.276V131.07C260.835 129.552 261.438 128.097 262.509 127.024C263.58 125.951 265.033 125.347 266.548 125.345H305.406C306.921 125.347 308.373 125.951 309.445 127.024C310.516 128.097 311.119 129.552 311.12 131.07V388.276C311.119 389.793 310.516 391.248 309.445 392.322C308.373 393.395 306.921 393.998 305.406 394ZM266.548 126.872C265.437 126.873 264.372 127.316 263.586 128.103C262.801 128.89 262.359 129.957 262.357 131.07V388.276C262.359 389.389 262.801 390.456 263.586 391.243C264.372 392.03 265.437 392.472 266.548 392.474H305.406C306.517 392.472 307.582 392.03 308.368 391.243C309.153 390.456 309.595 389.389 309.596 388.276V131.07C309.595 129.957 309.153 128.89 308.368 128.103C307.582 127.316 306.517 126.873 305.406 126.872H266.548Z" fill="#3F3D56"/>
<path d="M398.459 393.618H359.601C358.288 393.617 357.029 393.094 356.1 392.164C355.172 391.234 354.65 389.973 354.648 388.657V26.1264C354.65 24.8111 355.172 23.5502 356.1 22.6201C357.029 21.6901 358.288 21.1669 359.601 21.1654H398.459C399.772 21.1669 401.03 21.6901 401.959 22.6201C402.887 23.5502 403.41 24.8111 403.411 26.1264V388.657C403.41 389.973 402.887 391.234 401.959 392.164C401.03 393.094 399.772 393.617 398.459 393.618Z" fill="#F1C40F"/>
<path d="M156.787 169.709C156.928 168.596 156.824 167.465 156.481 166.397C156.139 165.329 155.567 164.349 154.806 163.526C154.044 162.703 153.112 162.057 152.074 161.634C151.037 161.211 149.92 161.022 148.801 161.078L135.257 136.19L132.209 146.875L141.488 169.685C141.707 171.561 142.606 173.291 144.014 174.548C145.422 175.805 147.241 176.501 149.127 176.504C151.013 176.507 152.834 175.817 154.246 174.564C155.658 173.312 156.562 171.585 156.787 169.709Z" fill="#A0616A"/>
<path d="M52.4322 267.978L59.976 273.495L84.8107 246.971L73.676 238.828L52.4322 267.978Z" fill="#A0616A"/>
<path d="M69.4117 291.153L45.7008 273.813L52.3888 264.636L66.9387 275.276C69.3684 277.053 70.9939 279.724 71.4576 282.701C71.9214 285.679 71.1854 288.719 69.4117 291.153Z" fill="#2F2E41"/>
<path d="M92.3453 297.182L101.686 297.181L106.13 261.09L92.3438 261.09L92.3453 297.182Z" fill="#A0616A"/>
<path d="M119.702 305.869L90.3443 305.87L90.3438 294.508L108.359 294.507C111.367 294.507 114.252 295.704 116.379 297.835C118.506 299.966 119.701 302.856 119.702 305.869Z" fill="#2F2E41"/>
<path d="M120.399 156.415C120.399 156.415 124.971 200.682 113.542 231.211L105.161 289.216H90.6843L92.2081 220.526L86.8747 159.468C86.8747 159.468 97.5416 131.992 120.399 156.415Z" fill="#2F2E41"/>
<path d="M70.8745 159.468L86.1129 212.13L56.398 259.45L71.2554 272.043L105.161 218.999L95.2559 154.125L70.8745 159.468Z" fill="#2F2E41"/>
<path d="M109.735 41.3775C120.07 41.3775 128.449 32.9848 128.449 22.6319C128.449 12.2791 120.07 3.88638 109.735 3.88638C99.4001 3.88638 91.0217 12.2791 91.0217 22.6319C91.0217 32.9848 99.4001 41.3775 109.735 41.3775Z" fill="#A0616A"/>
<path d="M94.1129 48.4193C94.1129 48.4193 105.542 40.787 118.494 57.5779L121.923 163.284C121.923 163.284 112.018 149.546 91.4462 162.521C70.8744 175.496 66.3029 160.995 66.3029 160.995C66.3029 160.995 51.8264 51.8538 94.1129 48.4193Z" fill="#CCCCCC"/>
<path d="M117.572 57.3114C120.859 57.4894 123.965 58.8787 126.291 61.212C128.617 63.5453 129.999 66.6578 130.172 69.9506L132.59 115.965L148.59 159.468L139.447 167.1L109.732 115.201L103.649 72.5424C103.37 70.5871 103.527 68.5943 104.109 66.7073C104.692 64.8203 105.684 63.0861 107.016 61.6295C108.347 60.1729 109.985 59.0301 111.81 58.2835C113.636 57.5368 115.604 57.2048 117.572 57.3114Z" fill="#CCCCCC"/>
<path d="M95.9848 36.693C99.0441 39.9574 104.726 38.205 105.124 33.7454C105.156 33.3991 105.153 33.0507 105.118 32.7049C104.912 30.7294 103.772 28.936 104.045 26.8502C104.107 26.3311 104.3 25.8364 104.606 25.413C107.044 22.1429 112.767 26.8756 115.068 23.9153C116.478 22.1001 114.82 19.2421 115.903 17.2133C117.332 14.5356 121.564 15.8565 124.218 14.3901C127.171 12.7585 126.994 8.22 125.05 5.45946C122.68 2.09288 118.523 0.296444 114.419 0.0375208C110.314 -0.221403 106.238 0.890109 102.406 2.38607C98.0515 4.08577 93.7339 6.43483 91.0545 10.2699C87.796 14.9337 87.4825 21.2038 89.1121 26.6573C90.1034 29.9747 93.4866 34.0273 95.9848 36.693Z" fill="#2F2E41"/>
<path d="M494.093 393.676H0.907209C0.667059 393.675 0.436976 393.579 0.267409 393.409C0.097843 393.239 0.00263977 393.008 0.00263977 392.767C0.00263977 392.527 0.097843 392.296 0.267409 392.126C0.436976 391.955 0.667059 391.859 0.907209 391.859H494.093C494.333 391.859 494.563 391.955 494.733 392.126C494.902 392.296 494.997 392.527 494.997 392.767C494.997 393.008 494.902 393.239 494.733 393.409C494.563 393.579 494.333 393.675 494.093 393.676Z" fill="#3F3D56"/>
</g>
<defs>
<clipPath id="clip0_1_100">
<rect width="495" height="394" fill="white"/>
</clipPath>
</defs>
</svg>
