<svg width="1165" height="1014" viewBox="0 0 1165 1014" fill="none" xmlns="http://www.w3.org/2000/svg">
<path d="M0 1014L48.6933 992.4C95.5664 970.8 195.684 927.6 242.557 884.4C291.25 841.2 291.25 798 364.062 754.8C436.875 711.6 533.807 668.4 606.619 625.2C679.432 582 671.957 538.8 647.838 495.6C621.899 452.4 632.559 409.2 606.619 366C582.5 322.8 582.5 279.6 582.5 236.4C582.5 193.2 582.5 150 460.994 106.8C341.309 63.6 289.43 35.9928 242.557 -7.20721C193.863 -50.4072 145.625 -109.2 194.318 -152.4C241.191 -195.6 195.684 -238.8 169.744 -260.4L145.625 -282H1165V-260.4C1165 -238.8 1165 -195.6 1165 -152.4C1165 -109.2 1165 -66 1165 -22.8C1165 20.4 1165 63.6 1165 106.8C1165 150 1165 193.2 1165 236.4C1165 279.6 1165 322.8 1165 366C1165 409.2 1165 452.4 1165 495.6C1165 538.8 1165 582 1165 625.2C1165 668.4 1165 711.6 1165 754.8C1165 798 1165 841.2 1165 884.4C1165 927.6 1165 970.8 1165 992.4V1014L0 1014Z" fill="#27AE60"/>
</svg>
